<?xml version="1.0" encoding="UTF-8" standalone="no"?><svg xmlns="http://www.w3.org/2000/svg" xmlns:xlink= "http://www.w3.org/1999/xlink" width="600" height="390" style="overflow: hidden;" aria-label="A chart."><defs id="_ABSTRACT_RENDERER_ID_540"><clipPath id="_ABSTRACT_RENDERER_ID_541"><rect x="115" y="75" width="371" height="241"></rect></clipPath><filter id="_ABSTRACT_RENDERER_ID_542"><feGaussianBlur in="SourceAlpha" stdDeviation="2"></feGaussianBlur><feOffset dx="1" dy="1"></feOffset><feComponentTransfer><feFuncA type="linear" slope="0.1"></feFuncA></feComponentTransfer><feMerge><feMergeNode></feMergeNode><feMergeNode in="SourceGraphic"></feMergeNode></feMerge></filter></defs><rect x="0" y="0" width="600" height="390" stroke="none" stroke-width="0" fill="#ffffff"></rect><g><text text-anchor="start" x="115" y="52.05" font-family="Arial" font-size="13" font-weight="bold" stroke="none" stroke-width="0" fill="#000000">Graph Title</text><rect x="115" y="41" width="371" height="13" stroke="none" stroke-width="0" fill-opacity="0" fill="#ffffff"></rect></g><g><rect x="499" y="75" width="88" height="93" stroke="none" stroke-width="0" fill-opacity="0" fill="#ffffff"></rect><g><rect x="499" y="75" width="88" height="13" stroke="none" stroke-width="0" fill-opacity="0" fill="#ffffff"></rect><g><text text-anchor="start" x="530" y="86.05" font-family="Arial" font-size="13" stroke="none" stroke-width="0" fill="#222222">Overall</text></g><rect x="499" y="75" width="26" height="13" stroke="none" stroke-width="0" fill="#3366cc"></rect></g><g><rect x="499" y="96" width="88" height="30" stroke="none" stroke-width="0" fill-opacity="0" fill="#ffffff"></rect><g><text text-anchor="start" x="530" y="107.05" font-family="Arial" font-size="13" stroke="none" stroke-width="0" fill="#222222">single-</text><text text-anchor="start" x="530" y="124.05" font-family="Arial" font-size="13" stroke="none" stroke-width="0" fill="#222222">word</text></g><rect x="499" y="96" width="26" height="13" stroke="none" stroke-width="0" fill="#dc3912"></rect></g><g><rect x="499" y="134" width="88" height="13" stroke="none" stroke-width="0" fill-opacity="0" fill="#ffffff"></rect><g><text text-anchor="start" x="530" y="145.05" font-family="Arial" font-size="13" stroke="none" stroke-width="0" fill="#222222">bi-word</text></g><rect x="499" y="134" width="26" height="13" stroke="none" stroke-width="0" fill="#ff9900"></rect></g><g><rect x="499" y="155" width="88" height="13" stroke="none" stroke-width="0" fill-opacity="0" fill="#ffffff"></rect><g><text text-anchor="start" x="530" y="166.05" font-family="Arial" font-size="13" stroke="none" stroke-width="0" fill="#222222">tri-word</text></g><rect x="499" y="155" width="26" height="13" stroke="none" stroke-width="0" fill="#109618"></rect></g></g><g><rect x="115" y="75" width="371" height="241" stroke="none" stroke-width="0" fill-opacity="0" fill="#ffffff"></rect><g clip-path="url(https://www.rapidtables.com/tools/bar-graph.html#_ABSTRACT_RENDERER_ID_541)"><g><rect x="115" y="75" width="1" height="241" stroke="none" stroke-width="0" fill="#cccccc"></rect><rect x="208" y="75" width="1" height="241" stroke="none" stroke-width="0" fill="#cccccc"></rect><rect x="300" y="75" width="1" height="241" stroke="none" stroke-width="0" fill="#cccccc"></rect><rect x="393" y="75" width="1" height="241" stroke="none" stroke-width="0" fill="#cccccc"></rect><rect x="485" y="75" width="1" height="241" stroke="none" stroke-width="0" fill="#cccccc"></rect><rect x="161" y="75" width="1" height="241" stroke="none" stroke-width="0" fill="#ebebeb"></rect><rect x="254" y="75" width="1" height="241" stroke="none" stroke-width="0" fill="#ebebeb"></rect><rect x="346" y="75" width="1" height="241" stroke="none" stroke-width="0" fill="#ebebeb"></rect><rect x="439" y="75" width="1" height="241" stroke="none" stroke-width="0" fill="#ebebeb"></rect></g><g><rect x="116" y="81" width="191" height="3" stroke="none" stroke-width="0" fill="#3366cc"></rect><rect x="116" y="111" width="174" height="3" stroke="none" stroke-width="0" fill="#3366cc"></rect><rect x="116" y="141" width="191" height="3" stroke="none" stroke-width="0" fill="#3366cc"></rect><rect x="116" y="171" width="194" height="3" stroke="none" stroke-width="0" fill="#3366cc"></rect><rect x="116" y="201" width="163" height="3" stroke="none" stroke-width="0" fill="#3366cc"></rect><rect x="116" y="231" width="163" height="3" stroke="none" stroke-width="0" fill="#3366cc"></rect><rect x="116" y="261" width="194" height="3" stroke="none" stroke-width="0" fill="#3366cc"></rect><rect x="116" y="291" width="168" height="3" stroke="none" stroke-width="0" fill="#3366cc"></rect><rect x="116" y="85" width="268" height="3" stroke="none" stroke-width="0" fill="#dc3912"></rect><rect x="116" y="115" width="259" height="3" stroke="none" stroke-width="0" fill="#dc3912"></rect><rect x="116" y="145" width="268" height="3" stroke="none" stroke-width="0" fill="#dc3912"></rect><rect x="116" y="175" width="259" height="3" stroke="none" stroke-width="0" fill="#dc3912"></rect><rect x="116" y="205" width="259" height="3" stroke="none" stroke-width="0" fill="#dc3912"></rect><rect x="116" y="235" width="268" height="3" stroke="none" stroke-width="0" fill="#dc3912"></rect><rect x="116" y="265" width="206" height="3" stroke="none" stroke-width="0" fill="#dc3912"></rect><rect x="116" y="295" width="241" height="3" stroke="none" stroke-width="0" fill="#dc3912"></rect><rect x="116" y="89" width="233" height="3" stroke="none" stroke-width="0" fill="#ff9900"></rect><rect x="116" y="119" width="259" height="3" stroke="none" stroke-width="0" fill="#ff9900"></rect><rect x="116" y="149" width="220" height="3" stroke="none" stroke-width="0" fill="#ff9900"></rect><rect x="116" y="179" width="247" height="3" stroke="none" stroke-width="0" fill="#ff9900"></rect><rect x="116" y="209" width="173" height="3" stroke="none" stroke-width="0" fill="#ff9900"></rect><rect x="116" y="239" width="14" height="3" stroke="none" stroke-width="0" fill="#ff9900"></rect><rect x="116" y="269" width="304" height="3" stroke="none" stroke-width="0" fill="#ff9900"></rect><rect x="116" y="299" width="173" height="3" stroke="none" stroke-width="0" fill="#ff9900"></rect><rect x="116" y="93" width="26" height="3" stroke="none" stroke-width="0" fill="#109618"></rect><rect x="116" y="123" width="26" height="3" stroke="none" stroke-width="0" fill="#109618"></rect><rect x="116" y="153" width="53" height="3" stroke="none" stroke-width="0" fill="#109618"></rect><rect x="116" y="183" width="26" height="3" stroke="none" stroke-width="0" fill="#109618"></rect><rect x="116" y="213" width="26" height="3" stroke="none" stroke-width="0" fill="#109618"></rect><rect x="116" y="243" width="53" height="3" stroke="none" stroke-width="0" fill="#109618"></rect><rect x="116" y="273" width="40" height="3" stroke="none" stroke-width="0" fill="#109618"></rect><rect x="116" y="303" width="80" height="3" stroke="none" stroke-width="0" fill="#109618"></rect></g><g><rect x="115" y="75" width="1" height="241" stroke="none" stroke-width="0" fill="#333333"></rect></g></g><g></g><g><g><text text-anchor="middle" x="115.5" y="335.05" font-family="Arial" font-size="13" stroke="none" stroke-width="0" fill="#444444">0</text></g><g><text text-anchor="middle" x="208" y="335.05" font-family="Arial" font-size="13" stroke="none" stroke-width="0" fill="#444444">10</text></g><g><text text-anchor="middle" x="300.5" y="335.05" font-family="Arial" font-size="13" stroke="none" stroke-width="0" fill="#444444">20</text></g><g><text text-anchor="middle" x="393" y="335.05" font-family="Arial" font-size="13" stroke="none" stroke-width="0" fill="#444444">30</text></g><g><text text-anchor="middle" x="485.5" y="335.05" font-family="Arial" font-size="13" stroke="none" stroke-width="0" fill="#444444">40</text></g><g><text text-anchor="end" x="102" y="95.05" font-family="Arial" font-size="13" stroke="none" stroke-width="0" fill="#222222">W0</text></g><g><text text-anchor="end" x="102" y="125.05" font-family="Arial" font-size="13" stroke="none" stroke-width="0" fill="#222222">W1</text></g><g><text text-anchor="end" x="102" y="155.05" font-family="Arial" font-size="13" stroke="none" stroke-width="0" fill="#222222">W2</text></g><g><text text-anchor="end" x="102" y="185.05" font-family="Arial" font-size="13" stroke="none" stroke-width="0" fill="#222222">W3</text></g><g><text text-anchor="end" x="102" y="215.05" font-family="Arial" font-size="13" stroke="none" stroke-width="0" fill="#222222">W0L</text></g><g><text text-anchor="end" x="102" y="245.05" font-family="Arial" font-size="13" stroke="none" stroke-width="0" fill="#222222">W1L</text></g><g><text text-anchor="end" x="102" y="275.05" font-family="Arial" font-size="13" stroke="none" stroke-width="0" fill="#222222">W2L</text></g><g><text text-anchor="end" x="102" y="305.05" font-family="Arial" font-size="13" stroke="none" stroke-width="0" fill="#222222">W3L</text></g></g></g><g><g><text text-anchor="middle" x="300.5" y="368.05" font-family="Arial" font-size="13" font-style="italic" stroke="none" stroke-width="0" fill="#222222">Settings</text><rect x="115" y="357" width="371" height="13" stroke="none" stroke-width="0" fill-opacity="0" fill="#ffffff"></rect></g><g><text text-anchor="middle" x="42.05" y="195.5" font-family="Arial" font-size="13" font-style="italic" transform="rotate(-90 42.05 195.5)" stroke="none" stroke-width="0" fill="#222222">Accuracy</text><path d="M30.999999999999996,316L31.00000000000001,75L44.00000000000001,75L43.99999999999999,316Z" stroke="none" stroke-width="0" fill-opacity="0" fill="#ffffff"></path></g></g><g></g></svg>